<svg xmlns="http://www.w3.org/2000/svg" width="512" height="512" viewBox="0 0 108 108">
  <defs>
    <linearGradient id="bg" x1="18" y1="10" x2="92" y2="98" gradientUnits="userSpaceOnUse">
      <stop offset="0" stop-color="#2757FF"/>
      <stop offset="0.55" stop-color="#6D35E8"/>
      <stop offset="1" stop-color="#C047FF"/>
    </linearGradient>
    <linearGradient id="fold" x1="70" y1="12" x2="96" y2="40" gradientUnits="userSpaceOnUse">
      <stop offset="0" stop-color="#F4E9FF"/>
      <stop offset="1" stop-color="#9A61FF"/>
    </linearGradient>
  </defs>
  <rect x="10" y="10" width="88" height="88" rx="22" fill="url(#bg)"/>
  <path d="M72 10H76C88.2 10 98 19.8 98 32V36C93 29.6 87.2 25.2 79.5 24.5C74.2 24 72 20.1 72 10Z" fill="url(#fold)" opacity="0.94"/>
  <path d="M34 38C34 34.7 36.7 32 40 32H70C73.3 32 76 34.7 76 38V40C76 43.3 73.3 46 70 46H60V78C60 81.3 57.3 84 54 84H52C48.7 84 46 81.3 46 78V46H40C36.7 46 34 43.3 34 40V38Z" fill="#FFFFFF"/>
  <path d="M69 57H85" stroke="#DCC9FF" stroke-width="5" stroke-linecap="round" opacity="0.82"/>
  <path d="M69 69H82" stroke="#DCC9FF" stroke-width="5" stroke-linecap="round" opacity="0.74"/>
  <path d="M69 80H77" stroke="#DCC9FF" stroke-width="5" stroke-linecap="round" opacity="0.66"/>
</svg>
